<?xml version="1.0" encoding="UTF-8"?>
<svg width="18px" height="18px" viewBox="0 0 100 100" version="1.1" xmlns="http://www.w3.org/2000/svg" xmlns:xlink="http://www.w3.org/1999/xlink">
    <title>b32669d0-5543-44d7-9a34-b94826218a20@1.00x</title>
    <g id="Miscellaneous" stroke="none" stroke-width="1" fill="none" fill-rule="evenodd">
        <g id="alert">
            <path d="M0,100 L100,100 L100,0 L0,0 L0,100 Z M1.34215577,98.6578442 L98.6578442,98.6578442 L98.6578442,1.34215577 L1.34215577,1.34215577 L1.34215577,98.6578442 Z" id="outline" fill="#EEEEEE" opacity="0"></path>
            <path d="M49.8138504,6.00309545 C52.1432313,5.93221461 54.3056509,7.08235644 55.5417039,9.06969452 L55.5417039,9.06969452 L97.0221883,75.7391365 C98.2016899,77.6328584 98.3215251,79.9612269 97.3413,81.9646135 C96.3624214,83.9693375 94.4464047,85.3160733 92.2193549,85.568837 L92.2193549,85.568837 L9.25569311,94.957204 C9.005251,94.9852889 8.75615535,95 8.50975263,95 C6.35945128,95 4.34244976,93.9488239 3.11986139,92.1500555 C1.75454795,90.1426568 1.6293269,87.5748984 2.78997797,85.447136 L2.78997797,85.447136 L44.2704624,9.38932696 C45.3907196,7.33512016 47.4629261,6.06996416 49.8138504,6.00309545 Z M50.0105839,10.6812445 L49.9484967,10.6818161 C49.6361173,10.6905921 48.8619011,10.8002568 48.4162219,11.6187298 L48.4162219,11.6187298 L6.93439096,87.6765388 C6.46312893,88.5378078 6.84148502,89.2586525 7.02460398,89.5301395 C7.20906941,89.800289 7.75169398,90.4194933 8.72114731,90.3071539 L8.72114731,90.3071539 L91.6848091,80.9174495 C92.5734747,80.8171464 92.9720277,80.1872432 93.1026346,79.9211057 C93.2332415,79.6549682 93.4836836,78.9541842 93.0151145,78.1985677 L93.0151145,78.1985677 L51.5332836,11.5304631 C51.0404782,10.7400749 50.2501044,10.6732062 49.9484967,10.6818161 Z M51.8822868,70.6087016 C52.0694452,70.7825602 52.2310207,70.9965401 52.3804781,71.21052 C52.5272426,71.4244999 52.6497707,71.6652272 52.7574877,71.9059546 C52.8503937,72.1466819 52.9325279,72.400783 52.9863864,72.6548841 C53.0254339,72.9089852 53.0537096,73.1764601 53.0537096,73.4439349 C53.0537096,73.698036 53.0254339,73.9655109 52.9863864,74.219612 C52.9325279,74.4737131 52.8503937,74.7278142 52.7574877,74.9685415 C52.6497707,75.2092689 52.5272426,75.4499962 52.3804781,75.6639761 C52.2310207,75.8913297 52.0694452,76.0919359 51.8822868,76.2791683 C51.1282676,77.0280978 50.0914911,77.4560576 49.0264389,77.4560576 C47.9627331,77.4560576 46.912492,77.0280978 46.1719374,76.2791683 C45.4192646,75.5302387 44.98705,74.4870868 44.98705,73.4439349 C44.98705,72.3874093 45.4192646,71.3442574 46.1719374,70.6087016 C47.6678578,69.1108425 50.3729018,69.1108425 51.8822868,70.6087016 Z M49.0230727,33.4231453 C51.1865531,33.4231453 52.9524794,35.112034 53.0575186,37.2350059 L53.0624616,37.4352679 L53.0624616,57.7071863 C53.0624616,59.921878 51.2541618,61.7193089 49.0230727,61.7193089 C46.8595924,61.7193089 45.093666,60.0291626 44.9886268,57.907334 L44.9836838,57.7071863 L44.9836838,37.4352679 C44.9836838,35.2192388 46.7919836,33.4231453 49.0230727,33.4231453 Z" id="icon" fill="#e4ae56"></path>
        </g>
    </g>
</svg>
