<?xml version="1.0" encoding="UTF-8"?>
<svg width="18px" height="18px" viewBox="0 0 100 100" version="1.1" xmlns="http://www.w3.org/2000/svg" xmlns:xlink="http://www.w3.org/1999/xlink">
    <title>f1cc72f1-c2f8-4732-a1d8-c2d1ba879c33@1.00x</title>
    <g id="Actions" stroke="none" stroke-width="1" fill="none" fill-rule="evenodd">
        <g id="check">
            <path d="M0,100 L100,100 L100,0 L0,0 L0,100 Z M1.34215577,98.6578442 L98.6578442,98.6578442 L98.6578442,1.34215577 L1.34215577,1.34215577 L1.34215577,98.6578442 Z" id="outline" fill="#EEEEEE" opacity="0"></path>
            <path d="M74.6804839,21.6405899 C77.0755868,18.9908608 81.1682602,18.7716092 83.834856,21.1476369 C86.4335559,23.463167 86.7221658,27.392447 84.5424063,30.0549187 L84.3308175,30.3007261 L40.860451,78.3590062 C39.6132903,79.7389277 37.8582499,80.5 36.0329832,80.5 C34.5843081,80.5 33.1726379,80.0193208 32.019645,79.1149932 L31.7369142,78.8801183 L16.1966568,65.2144932 C13.5008068,62.8453782 13.2513952,58.7437529 15.6419782,56.0622241 C17.9494143,53.4807461 21.8648198,53.1727848 24.5442294,55.3064394 L24.7917162,55.5136279 L35.5125175,64.9394601 L74.6804839,21.6405899 Z" id="icon" fill="#00875c"></path>
        </g>
    </g>
</svg>
