<?xml version="1.0" encoding="UTF-8"?>
<svg width="18px" height="18px" viewBox="0 0 100 100" version="1.1" xmlns="http://www.w3.org/2000/svg" xmlns:xlink="http://www.w3.org/1999/xlink">
    <title>42e64686-63b7-48e5-8d38-a58ba41f219d@1.00x</title>
    <g id="Miscellaneous" stroke="none" stroke-width="1" fill="none" fill-rule="evenodd">
        <g id="information">
            <path d="M0,100 L100,100 L100,0 L0,0 L0,100 Z M1.34215577,98.6578442 L98.6578442,98.6578442 L98.6578442,1.34215577 L1.34215577,1.34215577 L1.34215577,98.6578442 Z" id="outline" fill="#EEEEEE" opacity="0"></path>
            <path d="M83.9491118,12.6201594 C74.8077978,4.51302611 62.6580868,0.849922205 49.7319718,2.31650557 C23.4125491,5.29663516 2,29.0048341 2,55.1671784 C2,67.9048507 6.99194059,79.345006 16.0535888,87.3810241 C23.875691,94.3194527 33.9000802,98 44.7305793,98 C46.5547913,98 48.4046584,97.8953399 50.2666779,97.6846779 C76.5874509,94.7032065 98,70.9950076 98,44.8326633 C98,32.0963327 93.0107599,20.6561774 83.9491118,12.6201594 M49.7319718,93.0179103 C38.1642263,94.3275035 27.3215747,91.0816983 19.1997131,83.8775939 C11.1561669,76.7446047 6.7259378,66.5469528 6.7259378,55.1671784 C6.7259378,31.3167491 26.2589139,9.70041063 50.2666779,6.98193131 C51.9464112,6.79273804 53.6085911,6.6974705 55.2505169,6.6974705 C64.9251867,6.6974705 73.8585594,9.9647445 80.8016372,16.1235895 C88.8451833,23.2565787 93.2740622,33.4528888 93.2740622,44.8326633 C93.2740622,68.6844344 73.7410861,90.299431 49.7319718,93.0179103 M48.8117642,42.9275809 C49.9554412,42.7934012 51.1072197,43.1597116 51.9686907,43.9231937 C52.8288113,44.6880176 53.3216591,45.7802398 53.3216591,46.9274756 L53.3216591,46.9274756 L53.3216591,64.8485071 C53.3216591,65.8588797 53.7388919,66.7874027 54.4990928,67.4596427 C55.2565931,68.1332244 56.2328368,68.4351286 57.241487,68.3264431 C59.4613275,68.0674764 61.4718765,69.6615304 61.7243766,71.8701271 C61.9782269,74.0787239 60.3822102,76.0726332 58.1596692,76.3248909 C57.7208321,76.3745373 57.281995,76.4000315 56.8458585,76.4000315 C54.006245,76.4000315 51.2435968,75.3641647 49.1047724,73.4668647 C46.6364826,71.2770532 45.2200515,68.135908 45.2200515,64.8485071 L45.2200515,64.8485071 L45.2200515,51.437253 L41.2475632,51.8867548 C39.0236719,52.1390125 37.0158235,50.5516675 36.7646736,48.3430707 C36.5108232,46.134474 38.10684,44.1405647 40.3307313,43.888307 L40.3307313,43.888307 Z M45.9320478,26.1350001 C47.0244145,25.0481451 48.6582387,24.5516805 50.1975442,24.8602936 C50.4959534,24.9139655 50.7916621,25.0078912 51.0752184,25.1286529 C51.3587746,25.2359966 51.6423309,25.3835942 51.8853791,25.5580277 C52.1554327,25.7324612 52.3998312,25.9203127 52.6145238,26.1350001 C53.492198,27.0071677 53.9917971,28.2282024 53.9917971,29.4626549 C53.9917971,29.7712681 53.9647918,30.0798812 53.8972784,30.3750764 C53.8432676,30.6836896 53.7500992,30.9788848 53.6272248,31.260662 C53.5192033,31.5424392 53.3720241,31.8107985 53.1964893,32.0657398 C53.0209545,32.3206811 52.8305667,32.5622044 52.6145238,32.7768918 C52.3998312,32.9915792 52.1554327,33.1928487 51.8853791,33.3672822 C51.6423309,33.5282978 51.3587746,33.6758953 51.0752184,33.796657 C50.7916621,33.9174187 50.4959534,33.9979265 50.1975442,34.0650163 C49.8869826,34.1186881 49.5764209,34.158942 49.2658593,34.158942 C48.0249631,34.158942 46.8083717,33.6490594 45.9320478,32.7768918 C45.7160049,32.5622044 45.5121144,32.3206811 45.3365796,32.0657398 C45.1745474,31.8107985 45.026018,31.5424392 44.9044939,31.260662 C44.7829697,30.9788848 44.7033039,30.6836896 44.6357905,30.3750764 C44.5817798,30.0798812 44.5399215,29.7712681 44.5399215,29.4626549 C44.5399215,28.2282024 45.0530233,27.0071677 45.9320478,26.1350001 Z" id="icon" fill="#106dd1"></path>
        </g>
    </g>
</svg>
