<?xml version="1.0" encoding="utf-8"?>
<!-- Generator: Adobe Illustrator 17.0.0, SVG Export Plug-In . SVG Version: 6.00 Build 0)  -->
<!DOCTYPE svg PUBLIC "-//W3C//DTD SVG 1.1//EN" "http://www.w3.org/Graphics/SVG/1.1/DTD/svg11.dtd">
<svg version="1.1" id="Layer_1" xmlns="http://www.w3.org/2000/svg" xmlns:xlink="http://www.w3.org/1999/xlink" x="0px" y="0px"
	 width="100px" height="14px" viewBox="0 0 100 14" enable-background="new 0 0 100 14" xml:space="preserve">
<path fill="#FFFFFF" d="M0.5,1.7c0-0.2,0.1-0.3,0.2-0.4c0,0,0.1,0,0.1,0h1.4c0.1,0,0.2,0.1,0.2,0.2l0.6,6.2l0,0l3.3-6.4
	c0.1-0.1,0.2-0.2,0.3-0.2h0.3c0.1,0,0.2,0.1,0.2,0.2l1.4,6.4l0,0l2.3-6.2c0.1-0.1,0.2-0.2,0.3-0.2h1.6c0.2,0,0.3,0.2,0.2,0.4
	l-4.3,11c0,0.1-0.2,0.2-0.3,0.2H7.9c-0.1,0-0.2-0.1-0.2-0.2L6,5.6l0,0l-3.6,7.1c0,0.1-0.2,0.2-0.3,0.2H1.9c-0.1,0-0.2-0.1-0.2-0.2
	L0.5,1.7z M14.7,1.6c0-0.2,0.1-0.3,0.3-0.3h6c0.1,0,0.3,0.1,0.3,0.3c0,0,0,0,0,0l-0.2,1.4c0,0.2-0.2,0.3-0.3,0.3h-4.2L16.2,6h3.5
	c0.1,0,0.3,0.1,0.2,0.3c0,0,0,0,0,0l-0.2,1.4c0,0.2-0.2,0.3-0.3,0.3h-3.5l-0.4,2.9h4.2c0.1,0,0.2,0.1,0.2,0.2c0,0,0,0,0,0.1
	l-0.2,1.4c0,0.2-0.2,0.3-0.3,0.3h-6c-0.1,0-0.2-0.1-0.2-0.2c0,0,0,0,0-0.1L14.7,1.6z M23.4,1.6c0-0.2,0.2-0.3,0.3-0.3h1.6
	c0.1,0,0.2,0.1,0.2,0.3c0,0,0,0,0,0l-1.3,9.1h3.6c0.1,0,0.2,0.1,0.2,0.2c0,0,0,0,0,0.1l-0.2,1.4c0,0.2-0.2,0.3-0.3,0.3h-5.4
	c-0.1,0-0.3-0.1-0.3-0.3c0,0,0,0,0,0L23.4,1.6z M35.4,1.1c1.3,0,2.5,0.6,3.4,1.6c0.1,0.1,0.1,0.3,0,0.5L37.9,4
	c-0.1,0.2-0.4,0.2-0.5,0c0,0,0,0,0,0c-0.5-0.5-1.3-0.8-2-0.8c-2.2,0.2-3.8,2.2-3.7,4.4c0,1.7,0.9,3.2,2.5,3.2c0.8,0,1.6-0.4,2.2-1
	c0.1-0.1,0.3-0.2,0.5-0.1c0,0,0,0,0.1,0.1l0.8,1.1c0.1,0.1,0,0.3-0.1,0.4c-1,1-2.3,1.6-3.7,1.6c-2.6,0-4.7-2.2-4.7-4.8
	c0-0.1,0-0.2,0-0.3c-0.2-3.5,2.5-6.4,5.9-6.6C35.3,1.1,35.3,1.1,35.4,1.1z M45.4,1.1c2.7,0.1,4.7,2.4,4.6,5.1c0,0,0,0,0,0
	c0.2,3.5-2.5,6.5-6,6.6c0,0-0.1,0-0.1,0c-2.6-0.1-4.7-2.4-4.6-5c0,0,0,0,0-0.1C39.1,4.3,41.8,1.3,45.4,1.1
	C45.3,1.1,45.4,1.1,45.4,1.1z M47.8,6.5c0.2-1.6-0.9-3-2.5-3.2c0,0-0.1,0-0.1,0c-2.2,0.2-3.8,2.1-3.7,4.3c-0.2,1.6,0.9,3,2.5,3.2
	c0,0,0.1,0,0.1,0C46.3,10.5,47.9,8.7,47.8,6.5L47.8,6.5z M54,1.4c0-0.1,0.2-0.3,0.3-0.2h0.2c0.1,0,0.2,0.1,0.2,0.2L57,8.7l0,0
	l4.4-7.4c0.1-0.1,0.2-0.2,0.3-0.2H62c0.1,0,0.2,0.1,0.2,0.2l0.1,11c0,0.2-0.1,0.4-0.3,0.4c0,0,0,0,0,0h-1.6c-0.1,0-0.2-0.1-0.2-0.2
	l0.1-5.9l0,0l-3.4,6.1c-0.1,0.1-0.2,0.2-0.3,0.2h-0.3c-0.1,0-0.2-0.1-0.2-0.2l-1.7-6.1l0,0l-1.6,5.9c0,0.1-0.2,0.3-0.3,0.2H51
	c-0.1,0-0.3-0.1-0.3-0.3c0,0,0-0.1,0-0.1L54,1.4z M66.1,1.6c0-0.2,0.1-0.3,0.3-0.3h6c0.1,0,0.3,0.1,0.3,0.3c0,0,0,0,0,0l-0.2,1.4
	c0,0.2-0.2,0.3-0.3,0.3H68L67.6,6H71c0.1,0,0.3,0.1,0.2,0.3c0,0,0,0,0,0l-0.2,1.4c0,0.2-0.2,0.3-0.3,0.3h-3.5l-0.4,2.9h4.2
	c0.1,0,0.2,0.1,0.2,0.2c0,0,0,0,0,0.1l-0.2,1.4c0,0.2-0.2,0.3-0.3,0.3h-6c-0.1,0-0.2-0.1-0.2-0.2c0,0,0,0,0-0.1L66.1,1.6z M78.7,1.7
	c0-0.2,0.2-0.4,0.4-0.4h1.5c0.2,0,0.3,0.1,0.3,0.3c0,0,0,0.1,0,0.1l-0.7,4.4l3.8-4.5c0.2-0.2,0.4-0.3,0.7-0.3h1.6
	c0.3,0,0.4,0.3,0.2,0.5l-4.4,5l3.3,5.4c0.1,0.2,0,0.4-0.2,0.5c0,0-0.1,0-0.2,0h-1.5c-0.2,0-0.5-0.1-0.6-0.3l-2.9-5l-0.7,5
	c0,0.2-0.2,0.4-0.4,0.4h-1.5c-0.2,0-0.3-0.2-0.3-0.3c0,0,0,0,0-0.1L78.7,1.7z M88.5,1.6c0-0.2,0.1-0.3,0.3-0.3h1.6
	c0.1,0,0.2,0.1,0.2,0.2c0,0,0,0,0,0.1l-1.5,10.8c0,0.2-0.1,0.3-0.3,0.3h-1.6c-0.1,0-0.2-0.1-0.2-0.2c0,0,0,0,0-0.1L88.5,1.6z
	 M94.7,3.2h-2.1c-0.1,0-0.3-0.1-0.3-0.3c0,0,0,0,0,0l0.2-1.4c0-0.2,0.1-0.3,0.3-0.3h6.4c0.1,0,0.3,0.1,0.3,0.3c0,0,0,0,0,0l-0.2,1.4
	c0,0.2-0.2,0.3-0.3,0.3h-2.1l-1.3,9.2c0,0.2-0.2,0.3-0.3,0.3h-1.6c-0.1,0-0.3-0.1-0.2-0.3c0,0,0,0,0,0L94.7,3.2z"/>
</svg>
